<svg width="146" height="117" viewBox="0 0 146 117" fill="none" xmlns="http://www.w3.org/2000/svg">
<path d="M80.31 29.2524C103.438 29.2524 116.558 44.5927 118.463 63.1225H119.047C133.934 63.1225 146 75.1855 146 90.0612C146 104.941 133.934 117 119.047 117H41.569C26.6894 117 14.6237 104.941 14.6237 90.0612C14.6237 75.1855 26.6894 63.1225 41.5727 63.1225H42.1566C44.0764 44.472 57.1859 29.2524 80.3137 29.2524H80.31ZM80.31 38.3783C64.7589 38.3783 51.2041 50.99 51.2041 68.4078C51.2041 71.1694 48.8063 73.3384 46.0654 73.3384H40.8829C31.4121 73.3384 23.7405 81.067 23.7405 90.6026C23.7405 100.142 31.4157 107.874 40.8829 107.874H119.737C129.204 107.874 136.88 100.142 136.88 90.6062C136.88 81.067 129.204 73.3347 119.737 73.3347H114.555C111.81 73.3347 109.416 71.1694 109.416 68.4115C109.416 50.7669 95.8612 38.382 80.31 38.382V38.3783ZM17.2077 59.5892C17.6368 60.6297 17.6657 61.7927 17.2889 62.8534C16.9121 63.9141 16.1562 64.7971 15.1675 65.3317L14.7478 65.5329L6.31347 69.0479C5.23647 69.5074 4.02392 69.5319 2.9293 69.1163C1.83469 68.7007 0.942735 67.8771 0.439901 66.8178C-0.0629329 65.7584 -0.137723 64.5453 0.231164 63.4319C0.600052 62.3186 1.38406 61.3912 2.4193 60.8438L2.83901 60.6426L11.2733 57.1276C12.3855 56.6661 13.6351 56.6662 14.7472 57.1278C15.8593 57.5894 16.743 58.4747 17.204 59.5892H17.2077ZM64.6531 24.3219L64.4268 24.395C61.1374 25.4636 57.9882 26.925 55.0472 28.7477C51.1276 27.0855 46.7822 26.7149 42.6387 27.6895C38.4953 28.6641 34.7681 30.9333 31.9955 34.1695C29.223 37.4057 27.5486 41.4413 27.2141 45.6936C26.8796 49.9458 27.9024 54.1946 30.1347 57.8262C27.3872 58.8096 24.778 60.1447 22.3719 61.7984C19.014 56.0349 17.755 49.2825 18.8098 42.6926C19.8646 36.1028 23.1677 30.0838 28.1559 25.662C33.1441 21.2403 39.5083 18.6898 46.1633 18.4454C52.8182 18.201 59.3517 20.2779 64.6494 24.3219H64.6531ZM5.78793 24.9803L6.25143 25.1485L14.715 28.766C17.0142 29.7389 18.1164 32.4053 17.1785 34.7243C16.3026 36.886 13.9558 37.9796 11.777 37.3213L11.3171 37.1567L2.84996 33.5392C1.7439 33.0657 0.866963 32.1768 0.407135 31.063C-0.0526934 29.9492 -0.0588077 28.6992 0.390101 27.5809C1.26602 25.4192 3.60909 24.3255 5.78793 24.9839V24.9803ZM32.6785 2.40145L32.8792 2.82209L36.3829 11.2567C36.8225 12.3379 36.8327 13.5466 36.4115 14.6351C35.9902 15.7236 35.1695 16.6094 34.1175 17.1108C33.0655 17.6122 31.8619 17.6913 30.7536 17.3319C29.6452 16.9725 28.7161 16.2017 28.1566 15.1777L27.9559 14.7571L24.4522 6.32248C24.0126 5.2413 24.0024 4.03255 24.4237 2.94406C24.8449 1.85556 25.6656 0.969802 26.7176 0.468369C27.7696 -0.0330641 28.9732 -0.112177 30.0815 0.247254C31.1899 0.606684 32.119 1.37742 32.6785 2.40145ZM65.7042 0.353156C67.8976 1.26392 69.018 3.68164 68.3684 5.91282L68.2005 6.38832L64.5801 14.7132C64.1215 15.7949 63.269 16.661 62.196 17.1353C61.1231 17.6096 59.9101 17.6566 58.8038 17.2667C57.6975 16.8768 56.7809 16.0792 56.2403 15.0362C55.6998 13.9932 55.5759 12.783 55.8939 11.6517L56.0618 11.1762L59.6749 2.85135C59.9071 2.29055 60.2473 1.78107 60.6759 1.35202C61.1046 0.922968 61.6134 0.582737 62.1733 0.350756C62.7331 0.118776 63.3331 -0.000410397 63.9389 1.06171e-06C64.5448 0.00041252 65.1446 0.120416 65.7042 0.353156Z" fill="#F0CA00"/>
</svg>
