<svg width="150" height="150" viewBox="0 0 150 150" fill="none" xmlns="http://www.w3.org/2000/svg">
<path d="M12.1949 61.2717L29.424 78.6072L68.2062 39.5992L50.971 22.2576L12.1888 61.2655L12.1949 61.2717ZM39.3952 111.202L52.3185 98.1971C52.8837 97.6273 53.5555 97.1751 54.2955 96.8666C55.0355 96.558 55.829 96.3992 56.6304 96.3992C57.4317 96.3992 58.2252 96.558 58.9652 96.8666C59.7052 97.1751 60.377 97.6273 60.9422 98.1971C62.0848 99.3484 62.7263 100.907 62.7263 102.531C62.7263 104.155 62.0848 105.714 60.9422 106.865L48.0189 119.87C49.1615 121.021 49.803 122.579 49.803 124.203C49.803 125.828 49.1615 127.386 48.0189 128.537L39.389 137.205C38.824 137.774 38.1525 138.225 37.4131 138.533C36.6737 138.841 35.8809 139 35.0803 139C34.2796 139 33.4868 138.841 32.7474 138.533C32.008 138.225 31.3365 137.774 30.7715 137.205L22.1539 128.543C21.0094 127.392 20.3667 125.832 20.3667 124.207C20.3667 122.581 21.0094 121.021 22.1539 119.87L30.7715 111.202C31.3365 110.633 32.008 110.182 32.7474 109.874C33.4868 109.565 34.2796 109.407 35.0803 109.407C35.8809 109.407 36.6737 109.565 37.4131 109.874C38.1525 110.182 38.824 110.633 39.389 111.202H39.3952ZM95.4126 72.1939L134.189 33.1859L125.571 24.512L86.795 63.52C82.036 58.7285 81.2092 51.8053 84.9453 48.0397L118.803 13.983C122.539 10.2235 129.43 11.0528 134.189 15.8443L142.806 24.5059C147.571 29.2974 148.398 36.2329 144.656 39.9862L110.798 74.0491C107.062 77.8086 100.172 76.9793 95.4126 72.1877V72.1939ZM89.7533 95.9427L59.5886 65.6086L55.2768 69.9456L85.4414 100.286L89.7533 95.9488V95.9427ZM98.3708 104.617L94.059 108.947L104.833 119.784C106.021 120.981 107.956 120.981 109.138 119.784C109.709 119.208 110.029 118.43 110.029 117.618C110.029 116.807 109.709 116.028 109.138 115.453L98.3708 104.617ZM12.5624 43.5553C11.7466 41.8393 11.4799 39.9121 11.799 38.0381C12.1181 36.164 13.0073 34.4349 14.3448 33.0877L22.9623 24.426C24.2969 23.0813 26.0152 22.1857 27.8794 21.8632C29.7437 21.5408 31.6618 21.8074 33.3684 22.6261L42.3535 13.5898C43.4836 12.452 44.8266 11.5492 46.3054 10.9331C47.7842 10.3171 49.3697 10 50.971 10C52.5723 10 54.1579 10.3171 55.6367 10.9331C57.1155 11.5492 58.4585 12.452 59.5886 13.5898L76.8238 30.9315C79.109 33.2339 80.392 36.3504 80.392 39.5992C80.392 42.848 79.109 45.9645 76.8238 48.267L68.2062 56.9347L117.756 106.779C120.613 109.657 122.218 113.553 122.218 117.615C122.218 121.677 120.613 125.573 117.756 128.451C116.343 129.874 114.665 131.002 112.817 131.772C110.968 132.542 108.987 132.938 106.985 132.938C104.984 132.938 103.002 132.542 101.154 131.772C99.3058 131.002 97.6273 129.874 96.2149 128.451L46.6653 78.6072L38.0416 87.2749C33.2826 92.0664 25.5654 92.0664 20.8064 87.2749L3.57124 69.9394C1.28414 67.6367 0 64.5189 0 61.2686C0 58.0183 1.28414 54.9005 3.57124 52.5978L12.5563 43.5676L12.5624 43.5553Z" fill="#F0CA00"/>
</svg>
