<svg width="150" height="150" viewBox="0 0 150 150" fill="none" xmlns="http://www.w3.org/2000/svg">
<g clip-path="url(#clip0_9_17)">
<path d="M81.6621 116.379L113.245 98.1441M42.8276 12.6386L46.7297 19.3972M96.1255 5.6214L94.1059 13.1585M138.774 38.3474L132.016 42.2495M23.8775 104.683L17.1189 108.585M17.6388 57.3068L10.1017 55.2873M67.8458 111.163C60.3918 109.164 53.6978 105.001 48.6101 99.1979C43.5224 93.3953 40.2695 86.2145 39.2627 78.5632C38.2559 70.912 39.5404 63.1341 42.9539 56.2129C46.3673 49.2916 51.7564 43.538 58.4397 39.6794C65.1229 35.8208 72.8003 34.0306 80.5009 34.535C88.2016 35.0395 95.5798 37.8161 101.703 42.5136C107.825 47.2111 112.418 53.6186 114.899 60.926C117.38 68.2334 117.639 76.1124 115.643 83.5669L114.074 89.4022C113.179 92.7426 112.951 96.2264 113.403 99.6548C113.854 103.083 114.977 106.389 116.706 109.384L118.778 112.972C120.848 116.557 121.409 120.818 120.338 124.816C119.266 128.815 116.65 132.224 113.065 134.294C109.48 136.364 105.22 136.925 101.221 135.853C97.2229 134.782 93.8137 132.166 91.7439 128.581L89.6719 124.992C86.1795 118.943 80.4216 114.526 73.684 112.721L67.8458 111.163Z" stroke="#F0CA00" stroke-width="11" stroke-linecap="round" stroke-linejoin="round"/>
</g>
<defs>
<clipPath id="clip0_9_17">
<rect width="150" height="150" fill="white"/>
</clipPath>
</defs>
</svg>
