<svg width="150" height="150" viewBox="0 0 150 150" fill="none" xmlns="http://www.w3.org/2000/svg">
<path d="M144.231 17H5.76923C4.23914 17 2.77171 17.6111 1.68977 18.6988C0.607828 19.7865 0 21.2617 0 22.8V127.2C0 128.738 0.607828 130.214 1.68977 131.301C2.77171 132.389 4.23914 133 5.76923 133H144.231C145.761 133 147.228 132.389 148.31 131.301C149.392 130.214 150 128.738 150 127.2V22.8C150 21.2617 149.392 19.7865 148.31 18.6988C147.228 17.6111 145.761 17 144.231 17ZM46.1538 86.6V63.4H103.846V86.6H46.1538ZM11.5385 86.6V63.4H34.6154V86.6H11.5385ZM115.385 63.4H138.462V86.6H115.385V63.4ZM138.462 51.8H80.7692V28.6H138.462V51.8ZM69.2308 28.6V51.8H11.5385V28.6H69.2308ZM11.5385 98.2H69.2308V121.4H11.5385V98.2ZM80.7692 121.4V98.2H138.462V121.4H80.7692Z" fill="#F0CA00"/>
</svg>
